<svg xmlns="http://www.w3.org/2000/svg" xmlns:xlink="http://www.w3.org/1999/xlink" style="height: 0; position: absolute">
  <symbol id="facebook" viewBox="0 0 16 16"><title>facebook</title>
    <path d="M15.117 0h-14.234c-0.488 0-0.883 0.395-0.883 0.883v14.234c0 0.488 0.395 0.883 0.883 0.883h7.663v-6.196h-2.086v-2.414h2.086v-1.783c0-2.066 1.262-3.19 3.106-3.19 0.883 0 1.642 0.064 1.863 0.094v2.16h-1.28c-1 0-1.195 0.48-1.195 1.18v1.54h2.39l-0.31 2.42h-2.080v6.189h4.077c0.488 0 0.883-0.395 0.883-0.883v-14.234c0-0.488-0.395-0.883-0.883-0.883z"></path></symbol>
  <symbol id="linkedin" viewBox="0 0 16 16">
    <path d="M13.632 13.635h-2.37V9.922c0-.886-.018-2.025-1.234-2.025-1.235 0-1.424.964-1.424 1.96v3.778h-2.37V6H8.51V7.04h.03c.318-.6 1.092-1.233 2.247-1.233 2.4 0 2.845 1.58 2.845 3.637v4.188zM3.558 4.955c-.762 0-1.376-.617-1.376-1.377 0-.758.614-1.375 1.376-1.375.76 0 1.376.617 1.376 1.375 0 .76-.617 1.377-1.376 1.377zm1.188 8.68H2.37V6h2.376v7.635zM14.816 0H1.18C.528 0 0 .516 0 1.153v13.694C0 15.484.528 16 1.18 16h13.635c.652 0 1.185-.516 1.185-1.153V1.153C16 .516 15.467 0 14.815 0z" fill-rule="nonzero"/></symbol>
  <symbol id="twitter" viewBox="0 0 16 16">
    <path d="M16 3.038c-.59.26-1.22.437-1.885.517.677-.407 1.198-1.05 1.443-1.816-.634.375-1.337.648-2.085.795-.598-.638-1.45-1.036-2.396-1.036-1.812 0-3.282 1.468-3.282 3.28 0 .258.03.51.085.75C5.152 5.39 2.733 4.084 1.114 2.1.83 2.583.67 3.147.67 3.75c0 1.14.58 2.143 1.46 2.732-.538-.017-1.045-.165-1.487-.41v.04c0 1.59 1.13 2.918 2.633 3.22-.276.074-.566.114-.865.114-.21 0-.416-.02-.617-.058.418 1.304 1.63 2.253 3.067 2.28-1.124.88-2.54 1.404-4.077 1.404-.265 0-.526-.015-.783-.045 1.453.93 3.178 1.474 5.032 1.474 6.038 0 9.34-5 9.34-9.338 0-.143-.004-.284-.01-.425.64-.463 1.198-1.04 1.638-1.7z" fill-rule="nonzero"/></symbol>
  <symbol id="youtube" viewBox="0 0 24 24">
    <path id="path4" d="M19.615 3.184c-3.604-.246-11.631-.245-15.23 0-3.897.266-4.356 2.62-4.385 8.816.029 6.185.484 8.549 4.385 8.816 3.6.245 11.626.246 15.23 0 3.897-.266 4.356-2.62 4.385-8.816-.029-6.185-.484-8.549-4.385-8.816zm-10.615 12.816v-8l8 3.993-8 4.007z"/><path id="path4138" d="m 9.0711864,11.984507 0,-3.8595599 1.9576276,0.9458821 C 13.926611,10.470981 16.8,11.918924 16.8,11.979016 c 0,0.05112 -7.5767727,3.865052 -7.6783216,3.865052 -0.027771,0 -0.050492,-1.736802 -0.050492,-3.859561 z" style="fill:#ffffff" /></symbol>
  <symbol id="email" viewBox="0 0 16 11">
    <path fill-rule="evenodd" d="M1.33 0h13.34L8 5 1.33 0zM16 0v11H0V0l8 6 8-6z"/></symbol>
  <symbol id="nav" viewBox="0 0 16 11">
    <path d="M0 12h16v-2H0v2zm0-5h16V5H0v2zm0-7v2h16V0H0z"/></symbol>
  <symbol id="phone" viewBox="0 0 32 32">
    <path d="M22 20c-2 2-2 4-4 4s-4-2-6-4-4-4-4-6 2-2 4-4-4-8-6-8-6 6-6 6c0 4 4.109 12.109 8 16s12 8 16 8c0 0 6-4 6-6s-6-8-8-6z" fill="#000000"></path></symbol>
  <symbol id="document" viewBox="0 0 17 16">
    <path d="M0,0 L0,16 L13,16 L13,4.02441406 L7,4 L7,0.062 L0,0 Z M11,13 L2,13 L2,12 L11,12 L11,13 L11,13 Z M11,11 L2,11 L2,10 L11,10 L11,11 L11,11 Z M11,7 L11,8 L2,8 L2,7 L11,7 L11,7 Z" class="si-glyph-fill"></path><path d="M8,0 L8,2.844 L12.752,2.844 L8,0 Z" class="si-glyph-fill"></path></symbol>
  <symbol id="doc-pdf" viewBox="0 0 16 16">
    <path d="M6.964,0 L0.016,0 L0.016,15.958 L11.958,15.958 L11.958,5.033 L6.964,5.033 L6.964,0 L6.964,0 Z M4.047,10.036 L3.029,10.036 L3.029,11.021 L2.031,11.021 L2.031,12.046 L0.969,12.046 L0.969,7.954 L3.03,7.968 L3.03,8.952 L4.048,8.952 L4.048,10.036 L4.047,10.036 Z M8.953,7.953 L11.031,7.953 L11.031,9.031 L10.02,9.031 L10.02,9.953 L11.031,9.953 L11.031,11.014 L10.02,11.014 L10.02,12.032 L8.953,12.032 L8.953,7.953 L8.953,7.953 Z M7.033,7.971 L7.033,8.969 L8.006,8.969 L8.02,11 L7.016,11 L7.016,12.016 L4.969,12.016 L4.969,7.961 L7.033,7.971 L7.033,7.971 Z" class="si-glyph-fill"></path><path d="M8.025,0.021 L8.025,3.988 L11.979,3.988 L8.025,0.021 Z" class="si-glyph-fill"></path></symbol>
</svg>
