<?xml version="1.0" encoding="utf-8"?>
<!-- Generator: Adobe Illustrator 16.0.0, SVG Export Plug-In . SVG Version: 6.00 Build 0)  -->
<!DOCTYPE svg PUBLIC "-//W3C//DTD SVG 1.0//EN" "http://www.w3.org/TR/2001/REC-SVG-20010904/DTD/svg10.dtd">
<svg version="1.0" id="Capa_1" xmlns="http://www.w3.org/2000/svg" xmlns:xlink="http://www.w3.org/1999/xlink" x="0px" y="0px"
	 width="800px" height="412px" viewBox="0 0 800 412" enable-background="new 0 0 800 412" xml:space="preserve">
<g>
	<g>
		<line fill="none" stroke="#333333" stroke-width="8" stroke-miterlimit="10" x1="214.071" y1="71.896" x2="285.008" y2="97.68"/>
		<line fill="none" stroke="#333333" stroke-width="8" stroke-miterlimit="10" x1="120.524" y1="97.911" x2="193.938" y2="71.117"/>
		
			<line fill="none" stroke="#333333" stroke-width="8" stroke-miterlimit="10" x1="68.155" y1="176.783" x2="107.135" y2="109.121"/>
		<line fill="none" stroke="#333333" stroke-width="8" stroke-miterlimit="10" x1="78.147" y1="270.2" x2="65.065" y2="195.724"/>
		
			<line fill="none" stroke="#333333" stroke-width="8" stroke-miterlimit="10" x1="146.293" y1="337.447" x2="86.875" y2="286.997"/>
		<line fill="none" stroke="#333333" stroke-width="8" stroke-miterlimit="10" x1="238" y1="344" x2="163" y2="344"/>
		
			<line fill="none" stroke="#333333" stroke-width="8" stroke-miterlimit="10" x1="318.745" y1="287.182" x2="260.03" y2="337.025"/>
		
			<line fill="none" stroke="#333333" stroke-width="8" stroke-miterlimit="10" x1="341.235" y1="192.697" x2="327.389" y2="271.823"/>
		
			<line fill="none" stroke="#333333" stroke-width="8" stroke-miterlimit="10" x1="298.665" y1="108.915" x2="338.889" y2="178.569"/>
		<line fill="none" stroke="#333333" stroke-width="8" stroke-miterlimit="10" x1="246" y1="288" x2="159" y2="288"/>
		
			<line fill="none" stroke="#333333" stroke-width="8" stroke-miterlimit="10" x1="285.711" y1="199.319" x2="259.155" y2="279.325"/>
		
			<line fill="none" stroke="#333333" stroke-width="8" stroke-miterlimit="10" x1="210.875" y1="129.983" x2="281.219" y2="181.461"/>
		
			<line fill="none" stroke="#333333" stroke-width="8" stroke-miterlimit="10" x1="128.256" y1="179.178" x2="196.225" y2="129.562"/>
		
			<line fill="none" stroke="#333333" stroke-width="8" stroke-miterlimit="10" x1="147.227" y1="279.293" x2="120.692" y2="198.977"/>
		<line fill="none" stroke="#333333" stroke-width="8" stroke-miterlimit="10" x1="167" y1="187" x2="239" y2="187"/>
		
			<line fill="none" stroke="#333333" stroke-width="8" stroke-miterlimit="10" x1="199.895" y1="256.292" x2="163.946" y2="194.121"/>
		
			<line fill="none" stroke="#333333" stroke-width="8" stroke-miterlimit="10" x1="243.391" y1="194.09" x2="207.612" y2="255.949"/>
		<circle fill="none" stroke="#82D4DA" stroke-width="8" stroke-miterlimit="10" cx="203.725" cy="124" r="9.334"/>
		<circle fill="#333333" cx="160.125" cy="187.4" r="9.334"/>
		<circle fill="#333333" cx="204.125" cy="262.809" r="9.334"/>
		<circle fill="#333333" cx="247.134" cy="187.4" r="9.333"/>
		<circle fill="none" stroke="#333333" stroke-width="8" stroke-miterlimit="10" cx="202.725" cy="68" r="9.334"/>
		<circle fill="none" stroke="#333333" stroke-width="8" stroke-miterlimit="10" cx="293.725" cy="101" r="9.334"/>
		<circle fill="none" stroke="#333333" stroke-width="8" stroke-miterlimit="10" cx="154.725" cy="344" r="9.334"/>
		<circle fill="none" stroke="#333333" stroke-width="8" stroke-miterlimit="10" cx="342.725" cy="185" r="9.334"/>
		<circle fill="none" stroke="#333333" stroke-width="8" stroke-miterlimit="10" cx="325.725" cy="281" r="9.334"/>
		<circle fill="none" stroke="#333333" stroke-width="8" stroke-miterlimit="10" cx="250.725" cy="344" r="9.334"/>
		<circle fill="none" stroke="#333333" stroke-width="8" stroke-miterlimit="10" cx="79.725" cy="281" r="9.334"/>
		<circle fill="none" stroke="#333333" stroke-width="8" stroke-miterlimit="10" cx="111.725" cy="101" r="9.334"/>
		<circle fill="none" stroke="#333333" stroke-width="8" stroke-miterlimit="10" cx="63.725" cy="185" r="9.334"/>
		<circle fill="none" stroke="#82D4DA" stroke-width="8" stroke-miterlimit="10" cx="288.725" cy="187" r="9.334"/>
		<circle fill="none" stroke="#82D4DA" stroke-width="8" stroke-miterlimit="10" cx="255.725" cy="288" r="9.334"/>
		<circle fill="none" stroke="#82D4DA" stroke-width="8" stroke-miterlimit="10" cx="150.725" cy="288" r="9.334"/>
		<circle fill="none" stroke="#82D4DA" stroke-width="8" stroke-miterlimit="10" cx="117.725" cy="187" r="9.334"/>
	</g>
	<g>
		<g>
			<path fill="#333333" d="M407.592,129.203c2.16,0,4.031,0.262,5.615,0.783s2.951,1.251,4.104,2.187
				c2.268,1.836,3.744,4.41,4.428,7.722l-6.803,1.242c-0.576-1.836-1.467-3.32-2.674-4.455c-1.207-1.134-2.709-1.701-4.508-1.701
				c-2.449,0-4.43,1.026-5.941,3.078c-1.62,2.232-2.43,5.319-2.43,9.262c0,3.941,0.721,7.02,2.161,9.233
				c1.439,2.214,3.402,3.321,5.887,3.321c2.482,0,4.355-0.603,5.615-1.809s1.891-2.763,1.891-4.672h6.857
				c0,3.925-1.252,6.958-3.752,9.1c-2.504,2.142-5.932,3.213-10.287,3.213c-4.645,0-8.336-1.62-11.071-4.86
				c-2.773-3.312-4.158-7.812-4.158-13.5c0-5.759,1.422-10.26,4.266-13.5C399.527,130.751,403.127,129.203,407.592,129.203z"/>
			<path fill="#333333" d="M442.365,129.203c2.34,0,4.482,0.387,6.426,1.161c1.945,0.774,3.619,1.917,5.023,3.429
				c2.951,3.168,4.428,7.704,4.428,13.608c0,5.939-1.477,10.529-4.428,13.77c-2.809,3.024-6.643,4.536-11.502,4.536
				c-4.824,0-8.641-1.548-11.449-4.645c-2.951-3.203-4.428-7.757-4.428-13.661c0-5.976,1.477-10.548,4.428-13.717
				C433.637,130.697,437.471,129.203,442.365,129.203z M451.654,147.481c0-4.014-0.838-7.109-2.512-9.287s-3.934-3.268-6.777-3.268
				s-5.111,1.09-6.803,3.268c-1.693,2.178-2.539,5.273-2.539,9.287c0,4.015,0.846,7.093,2.539,9.234
				c1.691,2.143,3.959,3.213,6.803,3.213s5.104-1.07,6.777-3.213C450.816,154.574,451.654,151.496,451.654,147.481z"/>
			<path fill="#333333" d="M474.248,129.905l9.611,20.844l9.613-20.844h8.801v35.046h-6.426v-26.622l-9.936,22.788h-4.158
				l-10.26-23.544v27.378h-6.371v-35.046H474.248z"/>
			<path fill="#333333" d="M511.107,129.905h6.371v35.046h-6.371V129.905z"/>
			<path fill="#333333" d="M544.711,139.571c-0.576-3.06-2.736-4.591-6.48-4.591c-1.836,0-3.266,0.37-4.293,1.107
				c-1.025,0.738-1.539,1.629-1.539,2.673c0,1.045,0.332,1.863,1,2.457c0.666,0.594,1.701,1.144,3.104,1.647l7.615,2.97
				c2.592,1.008,4.59,2.277,5.994,3.807c1.404,1.531,2.105,3.448,2.105,5.751c0,3.169-1.188,5.68-3.564,7.533
				c-2.375,1.854-5.76,2.781-10.152,2.781c-3.887,0-7.037-0.953-9.449-2.862c-2.699-2.087-4.123-5.039-4.266-8.855h6.318
				c0,2.88,1.492,4.697,4.48,5.454c0.9,0.252,2.088,0.378,3.564,0.378s2.844-0.369,4.104-1.107c1.26-0.737,1.891-1.728,1.891-2.97
				s-0.342-2.195-1.025-2.862c-0.684-0.666-1.801-1.287-3.348-1.863l-6.967-2.754c-2.699-1.043-4.77-2.268-6.209-3.672
				c-1.441-1.404-2.16-3.348-2.16-5.832c0-2.916,1.133-5.22,3.4-6.912c2.305-1.763,5.428-2.646,9.369-2.646
				c3.943,0,6.984,0.909,9.127,2.727c2.141,1.818,3.375,4.366,3.699,7.642H544.711z"/>
			<path fill="#333333" d="M559.389,129.905h6.371v35.046h-6.371V129.905z"/>
			<path fill="#333333" d="M600.174,133.793c2.951,3.168,4.428,7.704,4.428,13.608c0,5.939-1.477,10.529-4.428,13.77
				c-2.809,3.024-6.643,4.536-11.502,4.536c-4.824,0-8.641-1.548-11.449-4.645c-2.951-3.203-4.428-7.757-4.428-13.661
				c0-5.976,1.477-10.548,4.428-13.717c1.404-1.512,3.078-2.637,5.023-3.375c1.943-0.737,4.104-1.106,6.479-1.106
				C593.514,129.203,597.328,130.733,600.174,133.793z M581.922,156.716c1.691,2.143,3.959,3.213,6.803,3.213
				s5.104-1.07,6.777-3.213c1.674-2.142,2.512-5.22,2.512-9.234c0-4.014-0.838-7.109-2.512-9.287s-3.934-3.268-6.777-3.268
				s-5.111,1.09-6.803,3.268c-1.693,2.178-2.539,5.273-2.539,9.287C579.383,151.496,580.229,154.574,581.922,156.716z
				 M594.666,116.351l-14.418,7.128l1.619,3.996l15.066-5.615L594.666,116.351z"/>
			<path fill="#333333" d="M618.398,129.905l15.443,24.84v-24.84h6.373v35.046h-6.48l-15.93-25.704v25.704h-6.373v-35.046H618.398z"
				/>
			<path fill="#333333" d="M406.35,183.905c5.326,0,9.629,1.584,12.906,4.752c3.311,3.168,4.967,7.434,4.967,12.798
				c0,5.328-1.656,9.576-4.967,12.744c-3.277,3.168-7.58,4.752-12.906,4.752h-11.395v-35.046H406.35z M401.381,213.173h4.969
				c3.311,0,5.994-1.115,8.045-3.348c1.945-2.16,2.916-4.949,2.916-8.37c0-3.491-0.971-6.318-2.916-8.479
				c-2.016-2.195-4.697-3.294-8.045-3.294h-4.969V213.173z"/>
			<path fill="#333333" d="M430.967,183.905h22.572v5.508H437.34v9.233h15.174v5.509H437.34v9.233h16.199v5.562h-22.572V183.905z"/>
			<path fill="#333333" d="M495.82,193.571c-0.576-3.06-2.736-4.591-6.48-4.591c-1.836,0-3.266,0.37-4.293,1.107
				c-1.025,0.738-1.539,1.629-1.539,2.673c0,1.045,0.332,1.863,1,2.457c0.666,0.594,1.701,1.144,3.104,1.647l7.615,2.97
				c2.592,1.008,4.59,2.277,5.994,3.807c1.404,1.531,2.105,3.448,2.105,5.751c0,3.169-1.188,5.68-3.564,7.533
				c-2.375,1.854-5.76,2.781-10.152,2.781c-3.887,0-7.037-0.953-9.449-2.862c-2.699-2.087-4.123-5.039-4.266-8.855h6.318
				c0,2.88,1.492,4.697,4.48,5.454c0.9,0.252,2.088,0.378,3.564,0.378s2.844-0.369,4.104-1.107c1.26-0.737,1.891-1.728,1.891-2.97
				s-0.342-2.195-1.025-2.862c-0.684-0.666-1.801-1.287-3.348-1.863l-6.967-2.754c-2.699-1.043-4.77-2.268-6.209-3.672
				c-1.441-1.404-2.16-3.348-2.16-5.832c0-2.916,1.133-5.22,3.4-6.912c2.305-1.763,5.428-2.646,9.369-2.646
				c3.943,0,6.984,0.909,9.127,2.727c2.141,1.818,3.375,4.366,3.699,7.642H495.82z"/>
			<path fill="#333333" d="M510.502,183.905h22.572v5.508h-16.201v9.233h15.174v5.509h-15.174v9.233h16.201v5.562h-22.572V183.905z"
				/>
			<path fill="#333333" d="M547.4,213.389h14.418v5.562h-20.789v-35.046h6.371V213.389z"/>
			<path fill="#333333" d="M567.033,183.905h22.572v5.508h-16.199v9.233h15.174v5.509h-15.174v9.233h16.199v5.562h-22.572V183.905z"
				/>
			<path fill="#333333" d="M610.002,183.203c2.16,0,4.031,0.262,5.615,0.783s2.953,1.251,4.105,2.187
				c2.268,1.836,3.742,4.41,4.428,7.722l-6.805,1.242c-0.576-1.836-1.467-3.32-2.672-4.455c-1.207-1.134-2.711-1.701-4.51-1.701
				c-2.449,0-4.428,1.026-5.939,3.078c-1.621,2.232-2.43,5.319-2.43,9.262c0,3.941,0.719,7.02,2.158,9.233s3.402,3.321,5.887,3.321
				s4.355-0.603,5.615-1.809s1.891-2.763,1.891-4.672h6.857c0,3.925-1.25,6.958-3.752,9.1s-5.932,3.213-10.287,3.213
				c-4.645,0-8.334-1.62-11.07-4.86c-2.771-3.312-4.158-7.812-4.158-13.5c0-5.759,1.422-10.26,4.266-13.5
				C601.938,184.751,605.537,183.203,610.002,183.203z"/>
			<path fill="#333333" d="M643.881,183.203c2.16,0,4.031,0.262,5.615,0.783s2.953,1.251,4.105,2.187
				c2.268,1.836,3.742,4.41,4.428,7.722l-6.805,1.242c-0.576-1.836-1.467-3.32-2.672-4.455c-1.207-1.134-2.711-1.701-4.51-1.701
				c-2.449,0-4.428,1.026-5.939,3.078c-1.621,2.232-2.43,5.319-2.43,9.262c0,3.941,0.719,7.02,2.158,9.233s3.402,3.321,5.887,3.321
				s4.355-0.603,5.615-1.809s1.891-2.763,1.891-4.672h6.857c0,3.925-1.25,6.958-3.752,9.1s-5.932,3.213-10.287,3.213
				c-4.645,0-8.334-1.62-11.07-4.86c-2.771-3.312-4.158-7.812-4.158-13.5c0-5.759,1.422-10.26,4.266-13.5
				C635.816,184.751,639.416,183.203,643.881,183.203z"/>
			<path fill="#333333" d="M664.783,183.905h6.371v35.046h-6.371V183.905z"/>
			<path fill="#333333" d="M705.568,187.793c2.951,3.168,4.428,7.704,4.428,13.608c0,5.939-1.477,10.529-4.428,13.77
				c-2.807,3.024-6.641,4.536-11.502,4.536c-4.824,0-8.639-1.548-11.447-4.645c-2.953-3.203-4.428-7.757-4.428-13.661
				c0-5.976,1.475-10.548,4.428-13.717c1.404-1.512,3.078-2.637,5.021-3.375c1.943-0.737,4.104-1.106,6.48-1.106
				C698.908,183.203,702.725,184.733,705.568,187.793z M687.316,210.716c1.691,2.143,3.961,3.213,6.805,3.213
				s5.104-1.07,6.777-3.213c1.674-2.142,2.51-5.22,2.51-9.234c0-4.014-0.836-7.109-2.51-9.287s-3.934-3.268-6.777-3.268
				s-5.113,1.09-6.805,3.268s-2.537,5.273-2.537,9.287C684.779,205.496,685.625,208.574,687.316,210.716z M700.061,170.351
				l-14.418,7.128l1.621,3.996l15.064-5.615L700.061,170.351z"/>
			<path fill="#333333" d="M723.793,183.905l15.445,24.84v-24.84h6.371v35.046h-6.48l-15.93-25.704v25.704h-6.371v-35.046H723.793z"
				/>
		</g>
		<g>
			<path fill="#333333" d="M402.119,248.065c-0.277-1.473-1.319-2.21-3.122-2.21c-0.883,0-1.572,0.178-2.066,0.533
				s-0.74,0.784-0.74,1.287s0.158,0.896,0.48,1.183c0.32,0.286,0.818,0.551,1.494,0.793l3.667,1.43
				c1.248,0.485,2.211,1.097,2.887,1.833c0.676,0.737,1.014,1.66,1.014,2.77c0,1.525-0.572,2.734-1.717,3.627
				c-1.143,0.893-2.773,1.339-4.887,1.339c-1.873,0-3.389-0.459-4.551-1.378c-1.299-1.005-1.984-2.427-2.053-4.264h3.041
				c0,1.387,0.719,2.262,2.158,2.626c0.434,0.121,1.006,0.182,1.717,0.182c0.709,0,1.367-0.178,1.975-0.533
				c0.607-0.354,0.91-0.832,0.91-1.43s-0.164-1.058-0.494-1.378c-0.328-0.32-0.868-0.62-1.612-0.897l-3.354-1.326
				c-1.301-0.502-2.297-1.092-2.99-1.768s-1.041-1.612-1.041-2.808c0-1.404,0.547-2.514,1.639-3.328
				c1.109-0.85,2.613-1.274,4.512-1.274c1.896,0,3.362,0.438,4.393,1.313s1.625,2.102,1.781,3.679H402.119z"/>
			<path fill="#333333" d="M409.438,243.411h3.068v16.874h-3.068V243.411z"/>
			<path fill="#333333" d="M425.863,248.065c-0.277-1.473-1.316-2.21-3.119-2.21c-0.885,0-1.574,0.178-2.068,0.533
				s-0.74,0.784-0.74,1.287s0.16,0.896,0.48,1.183s0.82,0.551,1.496,0.793l3.666,1.43c1.248,0.485,2.209,1.097,2.885,1.833
				c0.676,0.737,1.016,1.66,1.016,2.77c0,1.525-0.572,2.734-1.717,3.627s-2.773,1.339-4.889,1.339c-1.871,0-3.389-0.459-4.549-1.378
				c-1.301-1.005-1.986-2.427-2.055-4.264h3.043c0,1.387,0.719,2.262,2.156,2.626c0.434,0.121,1.006,0.182,1.717,0.182
				s1.369-0.178,1.977-0.533c0.605-0.354,0.91-0.832,0.91-1.43s-0.166-1.058-0.494-1.378c-0.33-0.32-0.867-0.62-1.613-0.897
				l-3.354-1.326c-1.299-0.502-2.297-1.092-2.99-1.768s-1.039-1.612-1.039-2.808c0-1.404,0.545-2.514,1.637-3.328
				c1.109-0.85,2.613-1.274,4.512-1.274s3.363,0.438,4.395,1.313s1.625,2.102,1.781,3.679H425.863z"/>
			<path fill="#333333" d="M431.303,243.411h13.52v2.652h-5.227v14.222h-3.068v-14.222h-5.225V243.411z"/>
			<path fill="#333333" d="M447.443,243.411h10.867v2.652h-7.799v4.446h7.305v2.651h-7.305v4.446h7.799v2.678h-10.867V243.411z"/>
			<path fill="#333333" d="M466.781,243.411l4.629,10.036l4.629-10.036h4.236v16.874h-3.094v-12.817l-4.783,10.972h-2.002
				l-4.939-11.336v13.182h-3.068v-16.874H466.781z"/>
			<path fill="#333333" d="M488.859,243.411h3.848l5.537,16.874h-3.25l-1.17-3.64h-6.266l-1.195,3.64h-3.25L488.859,243.411z
				 M488.338,254.331h4.732l-2.34-7.254L488.338,254.331z"/>
			<path fill="#333333" d="M512.232,243.411h3.848l5.537,16.874h-3.25l-1.17-3.64h-6.266l-1.195,3.64h-3.25L512.232,243.411z
				 M511.711,254.331h4.732l-2.34-7.254L511.711,254.331z"/>
			<path fill="#333333" d="M527.797,243.411l7.438,11.96v-11.96h3.066v16.874h-3.119l-7.67-12.376v12.376h-3.068v-16.874H527.797z"
				/>
			<path fill="#333333" d="M540.936,243.411h13.52v2.652h-5.225v14.222h-3.068v-14.222h-5.227V243.411z"/>
			<path fill="#333333" d="M557.09,243.411h3.068v16.874h-3.068V243.411z"/>
			<path fill="#333333" d="M571.031,243.073c1.041,0,1.941,0.126,2.705,0.377c0.762,0.252,1.42,0.603,1.977,1.053
				c1.092,0.885,1.803,2.124,2.131,3.719l-3.275,0.598c-0.277-0.884-0.707-1.599-1.287-2.145c-0.58-0.547-1.305-0.819-2.172-0.819
				c-1.178,0-2.131,0.494-2.859,1.481c-0.779,1.075-1.17,2.562-1.17,4.46c0,1.897,0.346,3.38,1.041,4.445
				c0.691,1.066,1.637,1.6,2.834,1.6c1.195,0,2.096-0.29,2.703-0.871s0.91-1.33,0.91-2.249h3.303c0,1.89-0.604,3.35-1.809,4.381
				s-2.855,1.547-4.953,1.547c-2.234,0-4.012-0.78-5.33-2.34c-1.334-1.595-2.002-3.762-2.002-6.5c0-2.773,0.686-4.94,2.055-6.5
				C567.148,243.819,568.883,243.073,571.031,243.073z"/>
			<path fill="#333333" d="M588.004,243.073c1.127,0,2.158,0.187,3.096,0.56c0.936,0.372,1.74,0.923,2.418,1.65
				c1.42,1.525,2.131,3.71,2.131,6.552c0,2.86-0.711,5.07-2.131,6.631c-1.354,1.456-3.199,2.184-5.539,2.184
				c-2.322,0-4.16-0.745-5.512-2.236c-1.422-1.542-2.133-3.734-2.133-6.578c0-2.877,0.711-5.078,2.133-6.604
				C583.801,243.793,585.646,243.073,588.004,243.073z M592.477,251.874c0-1.933-0.402-3.423-1.209-4.472s-1.895-1.573-3.264-1.573
				s-2.461,0.524-3.275,1.573s-1.223,2.539-1.223,4.472c0,1.934,0.408,3.415,1.223,4.446s1.906,1.547,3.275,1.547
				s2.457-0.516,3.264-1.547S592.477,253.808,592.477,251.874z"/>
			<path fill="#333333" d="M611.73,248.585c0,1.196-0.338,2.22-1.016,3.068c-0.676,0.85-1.646,1.439-2.91,1.769l4.523,6.863h-4.004
				l-3.719-6.578h-2.34v6.578h-3.068v-16.874h6.24c1.994,0,3.545,0.478,4.654,1.431C611.184,245.761,611.73,247.009,611.73,248.585z
				 M605.152,251.653c1.125,0,1.975-0.256,2.547-0.767c0.572-0.512,0.859-1.188,0.859-2.028s-0.262-1.517-0.781-2.028
				c-0.52-0.511-1.299-0.767-2.34-0.767h-3.172v5.59H605.152z"/>
			<path fill="#333333" d="M628.078,248.585c0,1.196-0.338,2.22-1.014,3.068c-0.676,0.85-1.646,1.439-2.912,1.769l4.523,6.863
				h-4.004l-3.717-6.578h-2.34v6.578h-3.068v-16.874h6.24c1.992,0,3.543,0.478,4.652,1.431
				C627.533,245.761,628.078,247.009,628.078,248.585z M621.5,251.653c1.127,0,1.977-0.256,2.549-0.767
				c0.572-0.512,0.857-1.188,0.857-2.028s-0.26-1.517-0.779-2.028c-0.521-0.511-1.301-0.767-2.34-0.767h-3.172v5.59H621.5z"/>
			<path fill="#333333" d="M634.568,243.411v10.504c0,1.388,0.352,2.384,1.053,2.99c0.703,0.607,1.607,0.91,2.717,0.91
				s2.016-0.303,2.717-0.91c0.703-0.606,1.053-1.603,1.053-2.99v-10.504h3.068v10.504c0,2.149-0.598,3.81-1.793,4.979
				c-1.197,1.17-2.879,1.755-5.045,1.755s-3.848-0.585-5.043-1.755c-1.197-1.17-1.795-2.83-1.795-4.979v-10.504H634.568z"/>
			<path fill="#333333" d="M659.855,244.803c1.066,0.927,1.6,2.253,1.6,3.978s-0.533,3.051-1.6,3.979
				c-1.066,0.927-2.553,1.391-4.459,1.391h-2.859v6.136h-3.094v-16.874h5.953C657.303,243.411,658.789,243.875,659.855,244.803z
				 M655.396,251.472c0.953,0,1.674-0.251,2.158-0.754c0.486-0.503,0.729-1.148,0.729-1.938c0-0.788-0.242-1.438-0.729-1.95
				c-0.484-0.511-1.205-0.767-2.158-0.767h-2.859v5.408H655.396z"/>
			<path fill="#333333" d="M670.996,243.073c1.039,0,1.941,0.126,2.703,0.377c0.764,0.252,1.422,0.603,1.977,1.053
				c1.092,0.885,1.803,2.124,2.133,3.719l-3.277,0.598c-0.277-0.884-0.705-1.599-1.287-2.145c-0.58-0.547-1.303-0.819-2.17-0.819
				c-1.18,0-2.133,0.494-2.859,1.481c-0.781,1.075-1.17,2.562-1.17,4.46c0,1.897,0.346,3.38,1.039,4.445
				c0.693,1.066,1.639,1.6,2.834,1.6s2.098-0.29,2.703-0.871c0.607-0.581,0.91-1.33,0.91-2.249h3.303c0,1.89-0.602,3.35-1.807,4.381
				s-2.855,1.547-4.953,1.547c-2.236,0-4.014-0.78-5.33-2.34c-1.336-1.595-2.002-3.762-2.002-6.5c0-2.773,0.684-4.94,2.055-6.5
				C667.113,243.819,668.846,243.073,670.996,243.073z"/>
			<path fill="#333333" d="M681.301,243.411h3.068v16.874h-3.068V243.411z"/>
			<path fill="#333333" d="M701.172,245.283c1.42,1.525,2.131,3.71,2.131,6.552c0,2.86-0.711,5.07-2.131,6.631
				c-1.354,1.456-3.199,2.184-5.539,2.184c-2.322,0-4.16-0.745-5.512-2.236c-1.422-1.542-2.133-3.734-2.133-6.578
				c0-2.877,0.711-5.078,2.133-6.604c0.676-0.729,1.482-1.27,2.418-1.625s1.977-0.533,3.119-0.533
				C697.965,243.073,699.801,243.811,701.172,245.283z M692.383,256.32c0.814,1.031,1.906,1.547,3.275,1.547
				s2.457-0.516,3.264-1.547s1.209-2.513,1.209-4.446c0-1.933-0.402-3.423-1.209-4.472s-1.895-1.573-3.264-1.573
				s-2.461,0.524-3.275,1.573s-1.223,2.539-1.223,4.472C691.16,253.808,691.568,255.289,692.383,256.32z M698.52,236.886
				l-6.943,3.432l0.781,1.924l7.254-2.704L698.52,236.886z"/>
			<path fill="#333333" d="M710.182,243.411l7.438,11.96v-11.96h3.066v16.874h-3.119l-7.67-12.376v12.376h-3.068v-16.874H710.182z"
				/>
			<path fill="#333333" d="M398.712,278.411c2.565,0,4.637,0.764,6.213,2.288c1.596,1.525,2.393,3.58,2.393,6.162
				c0,2.565-0.797,4.611-2.393,6.136c-1.576,1.525-3.648,2.288-6.213,2.288h-5.486v-16.874H398.712z M396.32,292.503h2.393
				c1.594,0,2.885-0.536,3.874-1.611c0.938-1.04,1.404-2.383,1.404-4.03c0-1.681-0.467-3.042-1.404-4.082
				c-0.971-1.057-2.262-1.586-3.874-1.586h-2.393V292.503z"/>
			<path fill="#333333" d="M410.811,278.411h10.867v2.652h-7.799v4.446h7.305v2.651h-7.305v4.446h7.799v2.678h-10.867V278.411z"/>
			<path fill="#333333" d="M428.822,292.607h6.941v2.678h-10.01v-16.874h3.068V292.607z"/>
			<path fill="#333333" d="M445.67,278.411h10.867v2.652h-7.799v4.446h7.305v2.651h-7.305v4.446h7.799v2.678H445.67V278.411z"/>
			<path fill="#333333" d="M469.178,283.065c-0.277-1.473-1.318-2.21-3.121-2.21c-0.883,0-1.572,0.178-2.066,0.533
				s-0.74,0.784-0.74,1.287s0.158,0.896,0.48,1.183c0.32,0.286,0.818,0.551,1.494,0.793l3.666,1.43
				c1.248,0.485,2.211,1.097,2.887,1.833c0.676,0.737,1.014,1.66,1.014,2.77c0,1.525-0.572,2.734-1.717,3.627
				c-1.143,0.893-2.773,1.339-4.887,1.339c-1.873,0-3.389-0.459-4.551-1.378c-1.299-1.005-1.984-2.427-2.053-4.264h3.041
				c0,1.387,0.719,2.262,2.158,2.626c0.434,0.121,1.006,0.182,1.717,0.182c0.709,0,1.367-0.178,1.975-0.533
				c0.607-0.354,0.91-0.832,0.91-1.43s-0.164-1.058-0.494-1.378c-0.328-0.32-0.867-0.62-1.611-0.897l-3.354-1.326
				c-1.301-0.502-2.297-1.092-2.99-1.768s-1.041-1.612-1.041-2.808c0-1.404,0.547-2.514,1.639-3.328
				c1.109-0.85,2.613-1.274,4.512-1.274c1.896,0,3.361,0.438,4.393,1.313s1.625,2.102,1.781,3.679H469.178z"/>
			<path fill="#333333" d="M474.615,278.411h13.52v2.652h-5.225v14.222h-3.068v-14.222h-5.227V278.411z"/>
			<path fill="#333333" d="M493.219,278.411h3.848l5.539,16.874h-3.25l-1.17-3.64h-6.268l-1.195,3.64h-3.25L493.219,278.411z
				 M492.699,289.331h4.732l-2.34-7.254L492.699,289.331z"/>
			<path fill="#333333" d="M510.928,278.411c2.564,0,4.637,0.764,6.213,2.288c1.596,1.525,2.393,3.58,2.393,6.162
				c0,2.565-0.797,4.611-2.393,6.136c-1.576,1.525-3.648,2.288-6.213,2.288h-5.486v-16.874H510.928z M508.535,292.503h2.393
				c1.594,0,2.885-0.536,3.873-1.611c0.938-1.04,1.404-2.383,1.404-4.03c0-1.681-0.467-3.042-1.404-4.082
				c-0.971-1.057-2.262-1.586-3.873-1.586h-2.393V292.503z"/>
			<path fill="#333333" d="M529.836,278.073c1.127,0,2.158,0.187,3.096,0.56c0.936,0.372,1.74,0.923,2.418,1.65
				c1.42,1.525,2.131,3.71,2.131,6.552c0,2.86-0.711,5.07-2.131,6.631c-1.354,1.456-3.199,2.184-5.539,2.184
				c-2.322,0-4.16-0.745-5.512-2.236c-1.422-1.542-2.133-3.734-2.133-6.578c0-2.877,0.711-5.078,2.133-6.604
				C525.633,278.793,527.479,278.073,529.836,278.073z M534.309,286.874c0-1.933-0.402-3.423-1.209-4.472s-1.895-1.573-3.264-1.573
				s-2.461,0.524-3.275,1.573s-1.223,2.539-1.223,4.472c0,1.934,0.408,3.415,1.223,4.446s1.906,1.547,3.275,1.547
				s2.457-0.516,3.264-1.547S534.309,288.808,534.309,286.874z"/>
			<path fill="#333333" d="M553.678,278.411c2.566,0,4.637,0.764,6.215,2.288c1.594,1.525,2.393,3.58,2.393,6.162
				c0,2.565-0.799,4.611-2.393,6.136c-1.578,1.525-3.648,2.288-6.215,2.288h-5.486v-16.874H553.678z M551.287,292.503h2.391
				c1.596,0,2.887-0.536,3.875-1.611c0.936-1.04,1.404-2.383,1.404-4.03c0-1.681-0.469-3.042-1.404-4.082
				c-0.971-1.057-2.262-1.586-3.875-1.586h-2.391V292.503z"/>
			<path fill="#333333" d="M565.775,278.411h10.867v2.652h-7.799v4.446h7.305v2.651h-7.305v4.446h7.799v2.678h-10.867V278.411z"/>
			<path fill="#333333" d="M586.133,294.583v-3.067c1.336,0.763,2.627,1.144,3.875,1.144c0.744,0,1.287-0.217,1.625-0.649
				c0.338-0.434,0.506-1.093,0.506-1.977v-11.622h3.094v11.622c0,1.941-0.467,3.389-1.402,4.342
				c-0.832,0.85-1.977,1.274-3.434,1.274C588.941,295.649,587.52,295.294,586.133,294.583z"/>
			<path fill="#333333" d="M603.08,278.411h3.848l5.539,16.874h-3.25l-1.17-3.64h-6.268l-1.195,3.64h-3.25L603.08,278.411z
				 M602.561,289.331h4.732l-2.34-7.254L602.561,289.331z"/>
			<path fill="#333333" d="M618.383,292.607h6.941v2.678h-10.01v-16.874h3.068V292.607z"/>
			<path fill="#333333" d="M628.086,278.411h3.068v16.874h-3.068V278.411z"/>
			<path fill="#333333" d="M644.512,283.065c-0.277-1.473-1.316-2.21-3.119-2.21c-0.885,0-1.574,0.178-2.068,0.533
				s-0.74,0.784-0.74,1.287s0.16,0.896,0.48,1.183s0.82,0.551,1.496,0.793l3.666,1.43c1.248,0.485,2.209,1.097,2.885,1.833
				c0.676,0.737,1.016,1.66,1.016,2.77c0,1.525-0.572,2.734-1.717,3.627s-2.773,1.339-4.889,1.339c-1.871,0-3.389-0.459-4.549-1.378
				c-1.301-1.005-1.986-2.427-2.055-4.264h3.043c0,1.387,0.719,2.262,2.156,2.626c0.434,0.121,1.006,0.182,1.717,0.182
				s1.369-0.178,1.977-0.533c0.605-0.354,0.91-0.832,0.91-1.43s-0.166-1.058-0.494-1.378c-0.33-0.32-0.867-0.62-1.613-0.897
				l-3.354-1.326c-1.299-0.502-2.297-1.092-2.99-1.768s-1.039-1.612-1.039-2.808c0-1.404,0.545-2.514,1.637-3.328
				c1.109-0.85,2.613-1.274,4.512-1.274s3.363,0.438,4.395,1.313s1.625,2.102,1.781,3.679H644.512z"/>
			<path fill="#333333" d="M658.047,278.073c1.041,0,1.941,0.126,2.705,0.377c0.762,0.252,1.42,0.603,1.977,1.053
				c1.092,0.885,1.803,2.124,2.131,3.719l-3.275,0.598c-0.277-0.884-0.707-1.599-1.287-2.145c-0.58-0.547-1.305-0.819-2.172-0.819
				c-1.178,0-2.131,0.494-2.859,1.481c-0.779,1.075-1.17,2.562-1.17,4.46c0,1.897,0.346,3.38,1.041,4.445
				c0.691,1.066,1.637,1.6,2.834,1.6c1.195,0,2.096-0.29,2.703-0.871s0.91-1.33,0.91-2.249h3.303c0,1.89-0.604,3.35-1.809,4.381
				s-2.855,1.547-4.953,1.547c-2.234,0-4.012-0.78-5.33-2.34c-1.334-1.595-2.002-3.762-2.002-6.5c0-2.773,0.686-4.94,2.055-6.5
				C654.164,278.819,655.898,278.073,658.047,278.073z"/>
			<path fill="#333333" d="M675.02,278.073c1.127,0,2.158,0.187,3.096,0.56c0.936,0.372,1.74,0.923,2.418,1.65
				c1.42,1.525,2.131,3.71,2.131,6.552c0,2.86-0.711,5.07-2.131,6.631c-1.354,1.456-3.199,2.184-5.539,2.184
				c-2.322,0-4.16-0.745-5.512-2.236c-1.422-1.542-2.133-3.734-2.133-6.578c0-2.877,0.711-5.078,2.133-6.604
				C670.816,278.793,672.662,278.073,675.02,278.073z M679.492,286.874c0-1.933-0.402-3.423-1.209-4.472s-1.895-1.573-3.264-1.573
				s-2.461,0.524-3.275,1.573s-1.223,2.539-1.223,4.472c0,1.934,0.408,3.415,1.223,4.446s1.906,1.547,3.275,1.547
				s2.457-0.516,3.264-1.547S679.492,288.808,679.492,286.874z"/>
		</g>
	</g>
</g>
</svg>
